<?xml version="1.0" encoding="UTF-8" standalone="no"?>
<!DOCTYPE svg PUBLIC "-//W3C//DTD SVG 1.1//EN" "http://www.w3.org/Graphics/SVG/1.1/DTD/svg11.dtd">
<svg width="100%" height="100%" viewBox="0 0 128 128" version="1.1" xmlns="http://www.w3.org/2000/svg" xmlns:xlink="http://www.w3.org/1999/xlink" xml:space="preserve" xmlns:serif="http://www.serif.com/" style="fill-rule:evenodd;clip-rule:evenodd;stroke-linejoin:round;stroke-miterlimit:2;">
    <g transform="matrix(0.5,0,0,0.5,0,0)">
        <path d="M64,0C99.323,0 128,28.677 128,64C128,99.323 99.323,128 64,128C28.677,128 0,99.323 0,64C0,28.677 28.677,0 64,0ZM64,10C34.197,10 10,34.197 10,64C10,93.803 34.197,118 64,118C93.803,118 118,93.803 118,64C118,34.197 93.803,10 64,10Z" fill="#bc9a6e" />
    </g>
    <path d="M59.08,14.953C60.698,14.792 62.34,14.71 64,14.71C91.204,14.71 113.29,36.796 113.29,64C113.29,91.204 91.204,113.29 64,113.29C36.796,113.29 14.71,91.204 14.71,64C14.71,62.34 14.792,60.698 14.953,59.08C16.478,60.043 18.09,60.88 19.775,61.578C19.732,62.38 19.71,63.187 19.71,64C19.71,88.444 39.556,108.29 64,108.29C88.444,108.29 108.29,88.444 108.29,64C108.29,39.556 88.444,19.71 64,19.71C63.187,19.71 62.38,19.732 61.578,19.775C60.88,18.09 60.043,16.478 59.08,14.953Z" fill="#bc9a6e" />
    <path d="M113.047,68.92C122.029,74.59 128,84.603 128,96C128,113.661 113.661,128 96,128C84.603,128 74.59,122.029 68.92,113.047C70.778,112.863 72.605,112.575 74.397,112.19C79.324,118.752 87.17,123 96,123C110.902,123 123,110.902 123,96C123,87.17 118.752,79.324 112.19,74.397C112.575,72.605 112.863,70.778 113.047,68.92Z" fill="#bc9a6e" />
</svg>
