<?xml version="1.0" encoding="UTF-8" standalone="no"?>
<!DOCTYPE svg PUBLIC "-//W3C//DTD SVG 1.1//EN" "http://www.w3.org/Graphics/SVG/1.1/DTD/svg11.dtd">
<svg width="100%" height="100%" viewBox="0 0 512 512" version="1.1" xmlns="http://www.w3.org/2000/svg" xmlns:xlink="http://www.w3.org/1999/xlink" xml:space="preserve" xmlns:serif="http://www.serif.com/" style="fill-rule:evenodd;clip-rule:evenodd;stroke-linejoin:round;stroke-miterlimit:2;">
    <path d="M399.337,472.829C399.337,465.48 393.371,459.514 386.022,459.514L376.703,459.514C369.355,459.514 363.388,465.48 363.388,472.829C363.388,480.178 369.355,486.144 376.703,486.144L386.022,486.144C393.371,486.144 399.337,480.178 399.337,472.829Z" style="fill:#1b1b1b;"/>
    <path d="M148.612,472.829C148.612,465.48 142.645,459.514 135.297,459.514L125.978,459.514C118.629,459.514 112.663,465.48 112.663,472.829C112.663,480.178 118.629,486.144 125.978,486.144L135.297,486.144C142.645,486.144 148.612,480.178 148.612,472.829Z" style="fill:#1b1b1b;"/>
    <rect x="253.894" y="273.483" width="4.212" height="157.459" style="fill:#1b1b1b;"/>
    <path d="M311.912,283.729L307.954,282.286L254.021,430.22L257.979,431.663L311.912,283.729Z" style="fill:#1b1b1b;"/>
    <path d="M382.65,337.36L380.102,334.006L254.726,429.265L257.274,432.618L382.65,337.36Z" style="fill:#1b1b1b;"/>
    <path d="M406.346,384.103L405.04,380.099L255.347,428.939L256.653,432.944L406.346,384.103Z" style="fill:#1b1b1b;"/>
    <path d="M409.531,465.955L410.413,461.836L256.441,428.882L255.559,433.001L409.531,465.955Z" style="fill:#1b1b1b;"/>
    <path d="M99.124,444.642L99.547,448.832L256.211,433.037L255.789,428.846L99.124,444.642Z" style="fill:#1b1b1b;"/>
    <path d="M99.344,414.922L98.971,419.117L255.814,433.039L256.186,428.844L99.344,414.922Z" style="fill:#1b1b1b;"/>
    <path d="M138.136,326.51L135.385,329.7L254.625,432.536L257.375,429.347L138.136,326.51Z" style="fill:#1b1b1b;"/>
    <path d="M174.711,296.072L171.133,298.294L254.211,432.053L257.789,429.83L174.711,296.072Z" style="fill:#1b1b1b;"/>
    <path d="M113.683,146.889C113.683,140.136 108.201,134.654 101.448,134.654L76.98,134.654C70.228,134.654 64.746,140.136 64.746,146.889L64.746,435.91C64.746,442.663 70.228,448.145 76.98,448.145L101.448,448.145C108.201,448.145 113.683,442.663 113.683,435.91L113.683,146.889Z" style="fill:#1b1b1b;"/>
    <path d="M447.254,146.889C447.254,140.136 441.772,134.654 435.02,134.654L410.552,134.654C403.799,134.654 398.317,140.136 398.317,146.889L398.317,435.91C398.317,442.663 403.799,448.145 410.552,448.145L435.02,448.145C441.772,448.145 447.254,442.663 447.254,435.91L447.254,146.889Z" style="fill:#1b1b1b;"/>
    <path d="M359.763,472.829C348.079,472.829 338.608,463.357 338.608,451.673L338.608,414.303C338.608,368.711 301.592,331.696 256,331.696C210.408,331.696 173.392,368.711 173.392,414.303L173.392,451.673C173.392,463.357 163.921,472.829 152.237,472.829C139.436,472.829 123.17,472.829 110.37,472.829C98.686,472.829 89.214,463.357 89.214,451.673C89.214,382.4 89.214,166.786 89.214,166.786C89.214,74.734 163.948,0 256,0C348.052,0 422.786,74.734 422.786,166.786L422.786,451.673C422.786,463.357 413.314,472.829 401.63,472.829C388.83,472.829 372.564,472.829 359.763,472.829Z" style="fill:#2b2824;"/>
    <path d="M335.697,137.92C335.697,122.485 323.166,109.954 307.731,109.954L204.269,109.954C188.834,109.954 176.303,122.485 176.303,137.92L176.303,193.854C176.303,209.289 188.834,221.82 204.269,221.82L307.731,221.82C323.166,221.82 335.697,209.289 335.697,193.854L335.697,137.92Z" style="fill:#1b1b1b;"/>
    <path d="M281.221,430.942C281.221,417.022 269.92,405.721 256,405.721C242.08,405.721 230.779,417.022 230.779,430.942L230.779,486.779C230.779,500.699 242.08,512 256,512C269.92,512 281.221,500.699 281.221,486.779L281.221,430.942Z" style="fill:#2b2824;"/>
    <path d="M263.805,434.846C263.805,430.178 260.015,426.388 255.347,426.388C250.678,426.388 246.888,430.178 246.888,434.846L246.888,484.182C246.888,488.85 250.678,492.64 255.347,492.64C260.015,492.64 263.805,488.85 263.805,484.182L263.805,434.846Z" style="fill:#1b1b1b;"/>
    <path d="M389.682,387.843C389.682,383.251 385.954,379.523 381.363,379.523C376.771,379.523 373.043,383.251 373.043,387.843L373.043,437.456C373.043,442.048 376.771,445.776 381.363,445.776C385.954,445.776 389.682,442.048 389.682,437.456L389.682,387.843Z" style="fill:#1b1b1b;"/>
    <path d="M138.957,387.843C138.957,383.251 135.229,379.523 130.637,379.523C126.046,379.523 122.318,383.251 122.318,387.843L122.318,437.456C122.318,442.048 126.046,445.776 130.637,445.776C135.229,445.776 138.957,442.048 138.957,437.456L138.957,387.843Z" style="fill:#1b1b1b;"/>
</svg>
