<?xml version="1.0" encoding="UTF-8" standalone="no"?>
<!DOCTYPE svg PUBLIC "-//W3C//DTD SVG 1.1//EN" "http://www.w3.org/Graphics/SVG/1.1/DTD/svg11.dtd">
<svg width="100%" height="100%" viewBox="0 0 200 200" version="1.1" xmlns="http://www.w3.org/2000/svg" xmlns:xlink="http://www.w3.org/1999/xlink" xml:space="preserve" xmlns:serif="http://www.serif.com/" style="fill-rule:evenodd;clip-rule:evenodd;stroke-linejoin:round;stroke-miterlimit:2;">
    <path d="M170.178,118.804C159.8,157.537 119.928,180.557 81.196,170.178C42.463,159.8 19.443,119.928 29.822,81.196C40.2,42.463 80.072,19.443 118.804,29.822C157.537,40.2 180.557,80.072 170.178,118.804ZM141.102,111.013C135.024,133.698 111.672,147.181 88.987,141.102C66.302,135.024 52.819,111.672 58.898,88.987C64.976,66.302 88.328,52.819 111.013,58.898C133.698,64.976 147.181,88.328 141.102,111.013Z" style="fill:#2b2824;"/>
    <path d="M196.574,125.877C182.292,179.178 127.424,210.856 74.123,196.574C20.822,182.292 -10.856,127.424 3.426,74.123C17.708,20.822 72.576,-10.856 125.877,3.426C179.178,17.708 210.856,72.576 196.574,125.877ZM194.478,125.315C180.506,177.459 126.829,208.45 74.685,194.478C22.541,180.506 -8.45,126.829 5.522,74.685C19.494,22.541 73.171,-8.45 125.315,5.522C177.459,19.494 208.45,73.171 194.478,125.315Z" style="fill:#2b2824;"/>
    <circle cx="100" cy="100" r="20.445" style="fill:#2b2824;"/>
    <rect x="98.33" y="34.208" width="3.34" height="65.792" style="fill:#2b2824;"/>
    <path d="M165.119,109.533L165.518,106.218L100.2,98.342L99.8,101.658L165.119,109.533Z" style="fill:#2b2824;"/>
    <path d="M156.436,133.858L158.081,130.951L100.823,98.547L99.177,101.453L156.436,133.858Z" style="fill:#2b2824;"/>
    <path d="M65.658,156.142L68.55,157.812L101.446,100.835L98.554,99.165L65.658,156.142Z" style="fill:#2b2824;"/>
    <path d="M34.225,97.764L34.197,101.104L99.986,101.67L100.014,98.33L34.225,97.764Z" style="fill:#2b2824;"/>
    <path d="M116.651,36.328L113.399,35.566L98.374,99.619L101.626,100.381L116.651,36.328Z" style="fill:#2b2824;"/>
    <path d="M186.133,52.199L184.463,49.307L139.109,75.492L140.779,78.385L186.133,52.199Z" style="fill:#2b2824;"/>
    <path d="M148.343,185.83L151.225,184.142L124.754,138.954L121.872,140.642L148.343,185.83Z" style="fill:#2b2824;"/>
    <path d="M32.845,172.069L35.327,174.305L70.374,135.39L67.892,133.155L32.845,172.069Z" style="fill:#2b2824;"/>
    <path d="M6.426,130.786L7.524,133.941L56.986,116.733L55.889,113.578L6.426,130.786Z" style="fill:#2b2824;"/>
    <path d="M52.199,13.867L49.307,15.537L75.492,60.891L78.385,59.221L52.199,13.867Z" style="fill:#2b2824;"/>
</svg>
