<?xml version="1.0" encoding="UTF-8" standalone="no"?>
<!DOCTYPE svg PUBLIC "-//W3C//DTD SVG 1.1//EN" "http://www.w3.org/Graphics/SVG/1.1/DTD/svg11.dtd">
<svg width="100%" height="100%" viewBox="0 0 100 50" version="1.1" xmlns="http://www.w3.org/2000/svg" xmlns:xlink="http://www.w3.org/1999/xlink" xml:space="preserve" xmlns:serif="http://www.serif.com/" style="fill-rule:evenodd;clip-rule:evenodd;stroke-linejoin:round;stroke-miterlimit:2;">
    <path d="M25,0C38.798,0 50,11.202 50,25C50,38.798 38.798,50 25,50C11.202,50 0,38.798 0,25C0,11.202 11.202,0 25,0ZM25,1.333C11.938,1.333 1.333,11.938 1.333,25C1.333,38.062 11.938,48.667 25,48.667C38.062,48.667 48.667,38.062 48.667,25C48.667,11.938 38.062,1.333 25,1.333Z"/>
    <g transform="matrix(0.135449,0,0,0.134091,-10.1425,-88.9051)">
        <g transform="matrix(25.022,0,0,25.022,269,740.596)">
        </g>
        <text x="253.687px" y="740.596px" style="font-family:'SpaceMono-Regular', 'Space Mono', monospace;font-size:25.022px;">N</text>
    </g>
    <g transform="matrix(8.29385e-18,-0.134091,0.135449,8.21072e-18,-89.8399,60.0612)">
        <g transform="matrix(25.022,0,0,25.022,269,740.596)">
        </g>
        <text x="253.687px" y="740.596px" style="font-family:'SpaceMono-Regular', 'Space Mono', monospace;font-size:25.022px;">W</text>
    </g>
    <g transform="matrix(-0.135449,1.64214e-17,-1.65877e-17,-0.134091,60.6345,138.913)">
        <g transform="matrix(25.022,0,0,25.022,269,740.596)">
        </g>
        <text x="253.687px" y="740.596px" style="font-family:'SpaceMono-Regular', 'Space Mono', monospace;font-size:25.022px;">S</text>
    </g>
    <g transform="matrix(8.29385e-18,0.134091,-0.135449,8.21072e-18,140.284,-10.0468)">
        <g transform="matrix(25.022,0,0,25.022,269,740.596)">
        </g>
        <text x="253.687px" y="740.596px" style="font-family:'SpaceMono-Regular', 'Space Mono', monospace;font-size:25.022px;">E</text>
    </g>
    <g transform="matrix(1,0,0,0.716147,0,0.593792)">
        <path d="M24.667,-0C24.667,-0.257 24.816,-0.465 25,-0.465C25.184,-0.465 25.333,-0.257 25.333,0L25.333,5.955C25.333,6.212 25.184,6.42 25,6.42C24.816,6.42 24.667,6.212 24.667,5.955L24.667,-0Z"/>
    </g>
    <g transform="matrix(0.707107,0.707107,-0.506393,0.506393,24.5801,-9.93546)">
        <path d="M24.667,-0C24.667,-0.257 24.816,-0.465 25,-0.465C25.184,-0.465 25.333,-0.257 25.333,0L25.333,5.955C25.333,6.212 25.184,6.42 25,6.42C24.816,6.42 24.667,6.212 24.667,5.955L24.667,-0Z"/>
    </g>
    <g transform="matrix(0,1,-0.716147,0,49.4062,7.10543e-15)">
        <path d="M24.667,-0C24.667,-0.257 24.816,-0.465 25,-0.465C25.184,-0.465 25.333,-0.257 25.333,0L25.333,5.955C25.333,6.212 25.184,6.42 25,6.42C24.816,6.42 24.667,6.212 24.667,5.955L24.667,-0Z"/>
    </g>
    <g transform="matrix(-0.707107,0.707107,-0.506393,-0.506393,59.9355,24.5801)">
        <path d="M24.667,0C24.667,-0.257 24.816,-0.465 25,-0.465C25.184,-0.465 25.333,-0.257 25.333,0L25.333,5.955C25.333,6.212 25.184,6.42 25,6.42C24.816,6.42 24.667,6.212 24.667,5.955L24.667,0Z"/>
    </g>
    <g transform="matrix(-1,0,0,-0.716147,50,49.4062)">
        <path d="M24.667,0C24.667,-0.257 24.816,-0.465 25,-0.465C25.184,-0.465 25.333,-0.257 25.333,-0L25.333,5.955C25.333,6.212 25.184,6.42 25,6.42C24.816,6.42 24.667,6.212 24.667,5.955L24.667,0Z"/>
    </g>
    <g transform="matrix(-0.707107,-0.707107,0.506393,-0.506393,25.4199,59.9355)">
        <path d="M24.667,0C24.667,-0.257 24.816,-0.465 25,-0.465C25.184,-0.465 25.333,-0.257 25.333,-0L25.333,5.955C25.333,6.212 25.184,6.42 25,6.42C24.816,6.42 24.667,6.212 24.667,5.955L24.667,0Z"/>
    </g>
    <g transform="matrix(0,-1,0.716147,0,0.593792,50)">
        <path d="M24.667,0C24.667,-0.257 24.816,-0.465 25,-0.465C25.184,-0.465 25.333,-0.257 25.333,-0L25.333,5.955C25.333,6.212 25.184,6.42 25,6.42C24.816,6.42 24.667,6.212 24.667,5.955L24.667,0Z"/>
    </g>
    <g transform="matrix(0.707107,-0.707107,0.506393,0.506393,-9.93546,25.4199)">
        <path d="M24.667,-0C24.667,-0.257 24.816,-0.465 25,-0.465C25.184,-0.465 25.333,-0.257 25.333,-0L25.333,5.955C25.333,6.212 25.184,6.42 25,6.42C24.816,6.42 24.667,6.212 24.667,5.955L24.667,-0Z"/>
    </g>
    <g transform="matrix(1.02459,0,0,1.02459,-2.45945,0)">
        <path d="M80.155,0.641C80.155,0.461 80.301,0.316 80.48,0.316C80.66,0.316 80.805,0.461 80.805,0.641L80.805,4.123C80.805,4.303 80.66,4.449 80.48,4.449C80.301,4.449 80.155,4.303 80.155,4.123L80.155,0.641Z"/>
    </g>
    <g transform="matrix(1.02459,0,0,-1.02459,-2.45945,50)">
        <path d="M80.805,0.641C80.805,0.461 80.66,0.316 80.48,0.316C80.301,0.316 80.155,0.461 80.155,0.641L80.155,4.123C80.155,4.303 80.301,4.449 80.48,4.449C80.66,4.449 80.805,4.303 80.805,4.123L80.805,0.641Z"/>
    </g>
    <g transform="matrix(0.887325,0.512297,-0.512297,0.887325,18.588,-38.5502)">
        <path d="M80.155,0.641C80.155,0.461 80.301,0.316 80.48,0.316C80.66,0.316 80.805,0.461 80.805,0.641L80.805,4.123C80.805,4.303 80.66,4.449 80.48,4.449C80.301,4.449 80.155,4.303 80.155,4.123L80.155,0.641Z"/>
    </g>
    <g transform="matrix(0.887325,-0.512297,-0.512297,-0.887325,18.588,88.5502)">
        <path d="M80.805,0.641C80.805,0.461 80.66,0.316 80.48,0.316C80.301,0.316 80.155,0.461 80.155,0.641L80.155,4.123C80.155,4.303 80.301,4.449 80.48,4.449C80.66,4.449 80.805,4.303 80.805,4.123L80.805,0.641Z"/>
    </g>
    <g transform="matrix(0.512297,0.887325,-0.887325,0.512297,56.0908,-61.412)">
        <path d="M80.155,0.641C80.155,0.461 80.301,0.316 80.48,0.316C80.66,0.316 80.805,0.461 80.805,0.641L80.805,4.123C80.805,4.303 80.66,4.449 80.48,4.449C80.301,4.449 80.155,4.303 80.155,4.123L80.155,0.641Z"/>
    </g>
    <g transform="matrix(0.512297,-0.887325,-0.887325,-0.512297,56.0908,111.412)">
        <path d="M80.805,0.641C80.805,0.461 80.66,0.316 80.48,0.316C80.301,0.316 80.155,0.461 80.155,0.641L80.155,4.123C80.155,4.303 80.301,4.449 80.48,4.449C80.66,4.449 80.805,4.303 80.805,4.123L80.805,0.641Z"/>
    </g>
    <g transform="matrix(0.512297,-0.887325,0.887325,0.512297,21.4498,81.412)">
        <path d="M80.155,0.641C80.155,0.461 80.301,0.316 80.48,0.316C80.66,0.316 80.805,0.461 80.805,0.641L80.805,4.123C80.805,4.303 80.66,4.449 80.48,4.449C80.301,4.449 80.155,4.303 80.155,4.123L80.155,0.641Z"/>
    </g>
    <g transform="matrix(0.512297,0.887325,0.887325,-0.512297,21.4498,-31.412)">
        <path d="M80.805,0.641C80.805,0.461 80.66,0.316 80.48,0.316C80.301,0.316 80.155,0.461 80.155,0.641L80.155,4.123C80.155,4.303 80.301,4.449 80.48,4.449C80.66,4.449 80.805,4.303 80.805,4.123L80.805,0.641Z"/>
    </g>
    <g transform="matrix(0.887325,-0.512297,0.512297,0.887325,-1.41198,43.9092)">
        <path d="M80.155,0.641C80.155,0.461 80.301,0.316 80.48,0.316C80.66,0.316 80.805,0.461 80.805,0.641L80.805,4.123C80.805,4.303 80.66,4.449 80.48,4.449C80.301,4.449 80.155,4.303 80.155,4.123L80.155,0.641Z"/>
    </g>
    <g transform="matrix(0.887325,0.512297,0.512297,-0.887325,-1.41198,6.09078)">
        <path d="M80.805,0.641C80.805,0.461 80.66,0.316 80.48,0.316C80.301,0.316 80.155,0.461 80.155,0.641L80.155,4.123C80.155,4.303 80.301,4.449 80.48,4.449C80.66,4.449 80.805,4.303 80.805,4.123L80.805,0.641Z"/>
    </g>
    <g transform="matrix(0.942905,0,0,0.942905,5.7095,0)">
        <path d="M57.578,21.211C57.578,9.504 67.082,0 78.789,0C90.496,0 100,9.504 100,21.211L57.578,21.211ZM59.042,19.797C59.042,19.797 98.536,19.797 98.536,19.797C97.81,9.53 89.24,1.414 78.789,1.414C68.338,1.414 59.768,9.53 59.042,19.797Z"/>
    </g>
    <g transform="matrix(0.942905,0,0,-0.942905,5.7095,50)">
        <path d="M57.578,21.211L100,21.211C100,9.504 90.496,0 78.789,0C67.082,0 57.578,9.504 57.578,21.211ZM59.042,19.797C59.768,9.53 68.338,1.414 78.789,1.414C89.24,1.414 97.81,9.53 98.536,19.797L59.042,19.797Z"/>
    </g>
    <g transform="matrix(0.0896722,0,0,0.0896722,37.1504,-40.6255)">
        <g transform="matrix(25.022,0,0,25.022,314.941,740.596)">
        </g>
        <text x="253.687px" y="740.596px" style="font-family:'SpaceMono-Regular', 'Space Mono', monospace;font-size:25.022px;">STOP</text>
    </g>
    <g transform="matrix(0.0896722,0,0,0.0896722,71.8909,-40.6255)">
        <g transform="matrix(25.022,0,0,25.022,314.941,740.596)">
        </g>
        <text x="161.806px" y="740.596px" style="font-family:'SpaceMono-Regular', 'Space Mono', monospace;font-size:25.022px;">FULL SPEED</text>
    </g>
    <g transform="matrix(0.0949294,0,0,0.236894,-7.31417,-178.513)">
        <path d="M791.593,860.498C789.655,860.498 788.081,859.868 788.081,859.091C788.081,858.315 789.655,857.684 791.593,857.684L960,857.684C961.938,857.684 963.511,858.315 963.511,859.091C963.511,859.868 961.938,860.498 960,860.498L791.593,860.498Z"/>
    </g>
    <g transform="matrix(0.061657,-0.192609,0.207476,0.0664163,-122.943,77.964)">
        <path d="M652.725,817.476L672.103,821.151C665.279,852.163 642.114,877.022 612.223,886.59L605.775,869.232C629.33,861.692 647.347,841.914 652.725,817.476Z"/>
    </g>
    <g transform="matrix(0.120073,0,0,0.120073,87.5622,-98.3624)">
        <g transform="matrix(25.022,0,0,25.022,-31.54,955.625)">
        </g>
        <text x="-92.794px" y="955.625px" style="font-family:'SpaceMono-Bold', 'Space Mono', monospace;font-weight:700;font-size:25.022px;">ACCL</text>
    </g>
    <g transform="matrix(0.120073,0,0,0.120073,87.5021,-79.0242)">
        <g transform="matrix(25.022,0,0,25.022,-31.54,955.625)">
        </g>
        <text x="-92.794px" y="955.625px" style="font-family:'SpaceMono-Bold', 'Space Mono', monospace;font-weight:700;font-size:25.022px;">SCAN</text>
    </g>
</svg>
