<?xml version="1.0" encoding="UTF-8" standalone="no"?>
<!DOCTYPE svg PUBLIC "-//W3C//DTD SVG 1.1//EN" "http://www.w3.org/Graphics/SVG/1.1/DTD/svg11.dtd">
<svg width="100%" height="100%" viewBox="0 0 100 40" version="1.1" xmlns="http://www.w3.org/2000/svg" xmlns:xlink="http://www.w3.org/1999/xlink" xml:space="preserve" xmlns:serif="http://www.serif.com/" style="fill-rule:evenodd;clip-rule:evenodd;stroke-linejoin:round;stroke-miterlimit:2;">
    <g transform="matrix(0.184286,0,0,0.0575895,8.84023,15.123)">
        <path d="M223.347,21.74C244.93,21.74 263.648,34.385 272.95,52.321C277.861,61.789 280.323,73.292 280.323,84.685C280.323,96.079 277.861,107.582 272.95,117.05C263.648,134.986 244.93,147.631 223.347,147.631C201.764,147.631 183.046,134.986 173.744,117.05C168.833,107.582 166.37,96.079 166.37,84.685C166.37,73.292 168.833,61.789 173.744,52.321C183.046,34.385 201.764,21.74 223.347,21.74ZM223.347,39.104C205.817,39.104 190.259,47.492 180.623,60.634C177.676,64.653 175.315,69.051 173.708,73.874C172.552,77.343 171.797,80.83 171.797,84.685C171.797,88.541 172.552,92.027 173.708,95.497C175.315,100.32 177.676,104.718 180.623,108.737C190.259,121.879 205.817,130.267 223.347,130.267C240.877,130.267 256.435,121.879 266.071,108.737C269.018,104.718 271.379,100.32 272.986,95.497C274.142,92.027 274.897,88.541 274.897,84.685C274.897,80.83 274.142,77.343 272.986,73.874C271.379,69.051 269.018,64.653 266.071,60.634C256.435,47.492 240.877,39.104 223.347,39.104Z"/>
    </g>
    <g transform="matrix(0.460716,0,0,0.143974,-52.8994,7.80753)">
        <path d="M223.347,26.949C244.559,26.949 262.968,39.156 272.11,56.783C276.397,65.048 278.696,74.738 278.696,84.685C278.696,94.633 276.397,104.323 272.11,112.588C262.968,130.215 244.559,142.422 223.347,142.422C202.135,142.422 183.726,130.215 174.584,112.588C170.297,104.323 167.998,94.633 167.998,84.685C167.998,74.738 170.297,65.048 174.584,56.783C183.726,39.156 202.135,26.949 223.347,26.949ZM223.347,33.895C205.553,33.895 189.766,42.502 179.984,55.842C176.83,60.144 174.315,64.912 172.594,70.075C171.055,74.695 170.169,79.55 170.169,84.685C170.169,89.821 171.055,94.675 172.594,99.296C174.315,104.459 176.83,109.227 179.984,113.529C189.766,126.869 205.553,135.476 223.347,135.476C241.14,135.476 256.928,126.869 266.709,113.529C269.864,109.227 272.379,104.459 274.1,99.296C275.639,94.675 276.525,89.821 276.525,84.685C276.525,79.55 275.639,74.695 274.1,70.075C272.379,64.912 269.864,60.144 266.709,55.842C256.928,42.502 241.14,33.895 223.347,33.895Z"/>
    </g>
    <g transform="matrix(0.737145,0,0,0.230358,-114.639,0.492042)">
        <path d="M223.347,28.252C244.466,28.252 262.798,40.349 271.9,57.898C276.031,65.864 278.289,75.1 278.289,84.685C278.289,94.271 276.031,103.507 271.9,111.473C262.798,129.022 244.466,141.119 223.347,141.119C202.228,141.119 183.896,129.022 174.794,111.473C170.663,103.507 168.405,94.271 168.405,84.685C168.405,75.1 170.663,65.864 174.794,57.898C183.896,40.349 202.228,28.252 223.347,28.252ZM223.347,32.593C202.537,32.593 184.463,44.324 175.494,61.616C171.881,68.583 169.762,76.301 169.762,84.685C169.762,93.07 171.881,100.787 175.494,107.755C184.463,125.047 202.537,136.778 223.347,136.778C244.156,136.778 262.231,125.047 271.2,107.755C274.813,100.787 276.932,93.07 276.932,84.685C276.932,76.301 274.813,68.583 271.2,61.616C262.231,44.324 244.156,32.593 223.347,32.593Z"/>
    </g>
    <g transform="matrix(1,0,0,0.3125,-1.42109e-14,4.375)">
        <path d="M10,50.8C9.862,50.8 9.75,50.442 9.75,50C9.75,49.558 9.862,49.2 10,49.2L90,49.2C90.138,49.2 90.25,49.558 90.25,50C90.25,50.442 90.138,50.8 90,50.8L10,50.8Z"/>
    </g>
    <g transform="matrix(1,0,0,0.3125,-1.42109e-14,4.375)">
        <path d="M49.75,10C49.75,9.558 49.862,9.2 50,9.2C50.138,9.2 50.25,9.558 50.25,10L50.25,90C50.25,90.442 50.138,90.8 50,90.8C49.862,90.8 49.75,90.442 49.75,90L49.75,10Z"/>
    </g>
    <g transform="matrix(0.606292,0.123034,0.393708,0.189466,-17.691,9.90343)">
        <path d="M-1.201,102.04C-1.821,102.659 -1.786,102.248 -1.122,101.122C-0.459,99.997 0.582,98.58 1.201,97.96L101.201,-2.04C101.821,-2.659 101.786,-2.248 101.122,-1.122C100.459,0.003 99.418,1.42 98.799,2.04L-1.201,102.04Z"/>
    </g>
    <g transform="matrix(0.606292,0.123034,0.393708,0.189466,-17.691,9.90343)">
        <path d="M-1.201,102.04C-1.821,102.659 -1.786,102.248 -1.122,101.122C-0.459,99.997 0.582,98.58 1.201,97.96L101.201,-2.04C101.821,-2.659 101.786,-2.248 101.122,-1.122C100.459,0.003 99.418,1.42 98.799,2.04L-1.201,102.04Z"/>
    </g>
    <g transform="matrix(-0.393708,0.189466,-0.606292,0.123034,82.309,-1.15343)">
        <path d="M2.04,98.799C1.42,99.418 0.003,100.459 -1.122,101.122C-2.248,101.786 -2.659,101.821 -2.04,101.201L97.96,1.201C98.58,0.582 99.997,-0.459 101.122,-1.122C102.248,-1.786 102.659,-1.821 102.04,-1.201L2.04,98.799Z"/>
    </g>
    <g transform="matrix(-0.606292,-0.123034,-0.393708,-0.189466,117.691,30.0966)">
        <path d="M-1.201,102.04C-1.821,102.659 -1.786,102.248 -1.122,101.122C-0.459,99.997 0.582,98.58 1.201,97.96L101.201,-2.04C101.821,-2.659 101.786,-2.248 101.122,-1.122C100.459,0.003 99.418,1.42 98.799,2.04L-1.201,102.04Z"/>
    </g>
    <g transform="matrix(0.393708,-0.189466,0.606292,-0.123034,17.691,41.1534)">
        <path d="M2.04,98.799C1.42,99.418 0.003,100.459 -1.122,101.122C-2.248,101.786 -2.659,101.821 -2.04,101.201L97.96,1.201C98.58,0.582 99.997,-0.459 101.122,-1.122C102.248,-1.786 102.659,-1.821 102.04,-1.201L2.04,98.799Z"/>
    </g>
    <g transform="matrix(0.340694,0.195077,0.200502,0.213224,-7.05234,3.46724)">
        <path d="M-1.278,102.332C-2.255,103.309 -2.474,103.056 -1.769,101.769C-1.063,100.481 0.302,98.644 1.278,97.668L101.278,-2.332C102.255,-3.309 102.474,-3.056 101.769,-1.769C101.063,-0.481 99.698,1.356 98.722,2.332L-1.278,102.332Z"/>
    </g>
    <g transform="matrix(-0.200502,0.213224,-0.340694,0.195077,47.0673,-4.29733)">
        <path d="M2.332,98.722C1.356,99.698 -0.481,101.063 -1.769,101.769C-3.056,102.474 -3.309,102.255 -2.332,101.278L97.668,1.278C98.644,0.302 100.481,-1.063 101.769,-1.769C103.056,-2.474 103.309,-2.255 102.332,-1.278L2.332,98.722Z"/>
    </g>
    <g transform="matrix(-0.624247,0.106467,-0.682316,0.0626569,102.905,2.17114)">
        <path d="M3.78,96.763C1.883,98.659 -1.351,101.65 -3.437,103.437C-5.523,105.224 -5.677,105.134 -3.78,103.237L96.22,3.237C98.117,1.341 101.351,-1.65 103.437,-3.437C105.523,-5.224 105.677,-5.134 103.78,-3.237L3.78,96.763Z"/>
    </g>
    <g transform="matrix(-0.682316,-0.0626569,-0.624247,-0.106467,127.751,19.0835)">
        <path d="M-3.237,103.78C-5.134,105.677 -5.224,105.523 -3.437,103.437C-1.65,101.351 1.341,98.117 3.237,96.22L103.237,-3.78C105.134,-5.677 105.224,-5.523 103.437,-3.437C101.65,-1.351 98.659,1.883 96.763,3.78L-3.237,103.78Z"/>
    </g>
    <g transform="matrix(-0.340694,-0.195077,-0.200502,-0.213224,107.052,36.5328)">
        <path d="M-1.278,102.332C-2.255,103.309 -2.474,103.056 -1.769,101.769C-1.063,100.481 0.302,98.644 1.278,97.668L101.278,-2.332C102.255,-3.309 102.474,-3.056 101.769,-1.769C101.063,-0.481 99.698,1.356 98.722,2.332L-1.278,102.332Z"/>
    </g>
    <g transform="matrix(0.200502,-0.213224,0.340694,-0.195077,52.9327,44.2973)">
        <path d="M2.332,98.722C1.356,99.698 -0.481,101.063 -1.769,101.769C-3.056,102.474 -3.309,102.255 -2.332,101.278L97.668,1.278C98.644,0.302 100.481,-1.063 101.769,-1.769C103.056,-2.474 103.309,-2.255 102.332,-1.278L2.332,98.722Z"/>
    </g>
    <g transform="matrix(0.624247,-0.106467,0.682316,-0.0626569,-2.90483,37.8289)">
        <path d="M3.78,96.763C1.883,98.659 -1.351,101.65 -3.437,103.437C-5.523,105.224 -5.677,105.134 -3.78,103.237L96.22,3.237C98.117,1.341 101.351,-1.65 103.437,-3.437C105.523,-5.224 105.677,-5.134 103.78,-3.237L3.78,96.763Z"/>
    </g>
    <g transform="matrix(0.682316,0.0626569,0.624247,0.106467,-27.7515,20.9165)">
        <path d="M-3.237,103.78C-5.134,105.677 -5.224,105.523 -3.437,103.437C-1.65,101.351 1.341,98.117 3.237,96.22L103.237,-3.78C105.134,-5.677 105.224,-5.523 103.437,-3.437C101.65,-1.351 98.659,1.883 96.763,3.78L-3.237,103.78Z"/>
    </g>
    <g transform="matrix(1,0,0,1,-1.51837,-3.68)">
        <g transform="matrix(4,0,0,4,9.35255,25)">
        </g>
        <text x="5.693px" y="25px" style="font-family:'LeagueSpartan-Bold', 'League Spartan';font-weight:700;font-size:4px;">W</text>
    </g>
    <g transform="matrix(1,0,0,1,88.3939,-3.68)">
        <g transform="matrix(4,0,0,4,6.1597,25)">
        </g>
        <text x="4.022px" y="25px" style="font-family:'LeagueSpartan-Bold', 'League Spartan';font-weight:700;font-size:4px;">E</text>
    </g>
    <g transform="matrix(1,0,0,1,44.9193,12.617)">
        <g transform="matrix(4,0,0,4,6.2597,25)">
        </g>
        <text x="4.022px" y="25px" style="font-family:'LeagueSpartan-Bold', 'League Spartan';font-weight:700;font-size:4px;">S</text>
    </g>
    <g transform="matrix(1,0,0,1,44.9193,-20.025)">
        <g transform="matrix(4,0,0,4,6.5867,25)">
        </g>
        <text x="3.695px" y="25px" style="font-family:'LeagueSpartan-Bold', 'League Spartan';font-weight:700;font-size:4px;">N</text>
    </g>
</svg>
